<?xml version="1.0" standalone="no"?>
<!DOCTYPE svg PUBLIC "-//W3C//DTD SVG 20010904//EN"
 "http://www.w3.org/TR/2001/REC-SVG-20010904/DTD/svg10.dtd">
<svg version="1.0" xmlns="http://www.w3.org/2000/svg"
 width="1200.000000pt" height="1200.000000pt" viewBox="0 0 1200.000000 1200.000000"
 preserveAspectRatio="xMidYMid meet">
<metadata>
Created by potrace 1.11, written by Peter Selinger 2001-2013
</metadata>
<g transform="translate(0.000000,1200.000000) scale(0.100000,-0.100000)"
fill="#000000" stroke="none">
<path d="M8935 11596 c-33 -13 -69 -26 -80 -31 -11 -4 -56 -21 -100 -38 -99
-36 -253 -95 -280 -107 -11 -5 -130 -52 -265 -105 -219 -87 -677 -274 -755
-309 -16 -8 -56 -26 -88 -40 -32 -14 -63 -26 -70 -26 -7 0 -17 -4 -23 -8 -5
-5 -34 -19 -64 -32 -66 -27 -544 -238 -638 -282 -37 -16 -92 -42 -122 -55 -30
-14 -102 -48 -160 -75 -58 -27 -114 -53 -125 -58 -82 -36 -724 -356 -865 -430
-152 -80 -461 -248 -600 -327 -67 -38 -410 -242 -450 -268 -376 -243 -572
-380 -785 -551 -410 -328 -656 -617 -776 -909 -41 -102 -93 -285 -105 -372 -3
-26 -7 -50 -9 -53 -25 -42 -25 -716 0 -760 1 -3 5 -33 9 -67 18 -169 84 -475
161 -743 48 -166 152 -484 175 -535 5 -11 34 -84 64 -162 121 -312 246 -590
427 -948 97 -194 141 -276 207 -395 14 -25 36 -64 49 -88 58 -108 87 -159 103
-182 9 -14 19 -30 21 -35 2 -6 44 -75 92 -155 49 -80 94 -154 100 -165 44 -72
272 -414 304 -454 7 -9 19 -25 26 -35 14 -19 18 -17 108 39 52 33 99 63 104
67 6 4 60 43 121 86 445 315 763 660 944 1027 111 225 164 402 187 625 12 122
6 345 -13 445 -2 10 -6 37 -10 60 -7 48 -7 48 -23 105 -35 126 -79 232 -230
543 -50 104 -91 191 -91 193 0 2 -13 32 -29 67 -37 81 -131 331 -131 349 0 8
-4 18 -8 24 -13 14 -53 182 -68 281 -3 26 -8 56 -10 67 -17 97 -23 364 -10
481 26 233 82 466 167 693 62 165 195 444 272 567 107 172 190 301 218 337 19
25 41 56 49 68 49 73 305 394 364 457 12 12 55 60 96 106 92 103 458 469 595
594 154 140 383 335 560 476 88 71 167 133 175 140 29 24 327 245 420 312 52
38 212 147 355 242 143 95 269 179 280 187 11 7 85 52 164 100 79 47 140 86
135 85 -5 0 -36 -11 -69 -23z"/>
<path d="M7514 9111 c-122 -80 -253 -173 -309 -218 -171 -137 -360 -310 -445
-409 -338 -392 -501 -741 -537 -1149 -11 -127 -5 -335 12 -426 3 -13 7 -41 10
-64 3 -22 13 -65 21 -95 9 -30 18 -62 19 -70 12 -53 83 -214 207 -470 190
-391 284 -648 328 -895 7 -38 14 -79 16 -89 6 -33 16 -178 18 -262 2 -96 -16
-346 -29 -394 -2 -8 -7 -28 -10 -45 -75 -429 -299 -925 -628 -1390 -65 -92
-224 -303 -237 -315 -3 -3 -25 -30 -50 -60 -221 -271 -647 -704 -960 -976 -25
-21 -47 -41 -50 -44 -3 -3 -34 -30 -70 -60 -36 -30 -67 -57 -70 -60 -3 -3 -54
-46 -115 -95 -60 -50 -119 -97 -130 -107 -74 -61 -413 -318 -475 -360 -14 -9
-63 -45 -110 -79 -149 -109 -617 -421 -770 -513 -25 -15 -52 -31 -60 -36 -8
-6 -35 -22 -60 -36 -25 -14 -34 -22 -20 -18 46 12 688 258 757 290 17 8 34 14
38 14 4 0 21 6 38 14 18 8 106 45 197 81 150 61 359 147 435 180 17 7 107 45
200 85 94 40 190 81 215 92 25 11 59 26 75 33 17 7 57 25 90 40 33 15 76 34
95 42 82 37 121 54 230 103 243 110 336 154 565 263 158 75 798 397 875 439
25 14 81 44 125 68 223 120 564 316 745 428 124 77 467 302 526 346 23 17 52
38 64 46 49 33 220 166 309 238 321 264 559 533 670 756 97 194 155 402 178
636 15 149 7 562 -13 674 -2 11 -10 68 -19 126 -8 58 -17 116 -20 130 -68 341
-134 584 -257 940 -36 104 -168 447 -202 524 -8 17 -23 51 -34 76 -11 25 -31
72 -45 105 -150 356 -500 1021 -775 1470 -143 233 -387 595 -403 595 -3 0 -73
-44 -155 -99z"/>
</g>
</svg>
